<?xml version="1.0" encoding="UTF-8" standalone="no"?><!DOCTYPE svg PUBLIC "-//W3C//DTD SVG 1.1//EN" "http://www.w3.org/Graphics/SVG/1.1/DTD/svg11.dtd"><svg width="100%" height="100%" viewBox="0 0 500 485" version="1.1" xmlns="http://www.w3.org/2000/svg" xmlns:xlink="http://www.w3.org/1999/xlink" xml:space="preserve" xmlns:serif="http://www.serif.com/" style="fill-rule:evenodd;clip-rule:evenodd;stroke-miterlimit:22.9256;"><rect x="0" y="0" width="500" height="484.136" style="fill:none;"/><path d="M76.568,51.581c11.053,-24.451 29.407,-39.59 56.27,-43.81l75.696,98.204l-56.136,43.61l-75.83,-98.004Z" style="fill:#dca684;"/><path d="M154.944,175.643c-38.05,-45.485 51.38,-93.917 65.313,-75.898l32.69,42.069c3.886,5.024 3.015,12.259 -2.009,16.144l-59.352,46.021c-5.024,3.885 -12.259,3.015 -16.144,-2.01l-20.498,-26.326Z" style="fill:#dca684;"/><path d="M231.578,151.862c-3.416,-4.354 -2.612,-10.651 1.742,-14.067l2.345,-1.876c4.354,-3.416 10.651,-2.612 14.067,1.742l54.729,70.404c3.417,4.355 2.613,10.652 -1.741,14.068l-2.412,1.876c-4.354,3.416 -10.651,2.612 -14.067,-1.742l-54.663,-70.405Z" style="fill:#dca684;"/><path d="M215.97,172.964c-3.416,-4.355 -2.613,-10.652 1.742,-14.068l2.344,-1.876c4.355,-3.416 10.651,-2.612 14.068,1.742l54.729,70.405c3.417,4.354 2.613,10.651 -1.742,14.067l-2.344,1.876c-4.354,3.416 -10.651,2.612 -14.068,-1.742l-54.729,-70.404Z" style="fill:#dca684;"/><path d="M189.309,179.059c-3.417,-4.354 -2.613,-10.651 1.741,-14.067l2.345,-1.876c4.354,-3.416 10.651,-2.612 14.067,1.742l54.73,70.405c3.416,4.354 2.612,10.651 -1.742,14.067l-2.411,1.876c-4.355,3.416 -10.652,2.612 -14.068,-1.742l-54.662,-70.405Z" style="fill:#dca684;"/><path d="M245.043,246.048c-2.881,-3.752 0,-6.23 3.751,-9.178c3.752,-2.88 6.9,-5.091 9.847,-1.406c2.881,3.751 2.211,9.177 -1.54,12.057c-3.752,2.948 -9.111,2.278 -12.058,-1.473" style="fill:#f5decd;"/><path d="M159.968,182.342c-3.417,-4.354 -2.613,-10.651 1.742,-14.068l2.344,-1.875c4.354,-3.417 10.651,-2.613 14.068,1.741l54.729,70.405c3.416,4.354 2.613,10.651 -1.742,14.068l-2.344,1.875c-4.354,3.417 -10.651,2.613 -14.068,-1.741l-54.729,-70.405Z" style="fill:#dca684;"/><path d="M215.702,249.263c-2.88,-3.751 0,-6.23 3.751,-9.177c3.752,-2.881 6.9,-5.091 9.848,-1.34c2.88,3.751 2.21,9.177 -1.541,12.058c-3.751,2.88 -9.177,2.21 -12.058,-1.541" style="fill:#f5decd;"/><path d="M207.529,120.847c-6.765,-1.943 -10.651,-8.977 -8.708,-15.742l0.201,-0.603c1.943,-6.766 8.976,-10.652 15.742,-8.709l66.319,17.551c6.765,1.943 10.651,8.976 8.708,15.742l-0.201,0.603c-1.943,6.766 -8.976,10.651 -15.742,8.709l-66.319,-17.551Z" style="fill:#dca684;"/><path d="M286.04,120.713c0.402,-1.541 0.402,-3.015 0.134,-4.488c-1.407,-1.34 -3.149,-2.345 -5.158,-2.948l-9.781,-2.612c-0.804,1.607 -1.34,3.684 -1.942,5.894c-1.474,5.828 -2.412,10.652 3.416,12.125c5.962,1.474 11.924,-2.076 13.331,-7.971" style="fill:#faede4;"/><path d="M286.04,120.713c0.402,-1.541 0.402,-3.015 0.134,-4.488c-1.407,-1.34 -3.149,-2.345 -5.158,-2.948l-7.369,-2.01c-0.737,1.541 -1.206,3.484 -1.742,5.56c-1.474,5.828 -2.411,10.652 3.417,12.125l0.067,0c4.957,0.067 9.445,-3.215 10.651,-8.239" style="fill:#f6e5d6;"/><path d="M154.877,175.576c0,0 0.067,0.067 0,0c0.067,0.067 0,0 0,0m-18.221,-46.155l12.929,16.613l-12.929,-16.613Z" style="fill:#f4f4f4;"/><path d="M221.865,256.565m5.292,-1.072c-1.675,0.871 -3.483,1.206 -5.292,1.072c1.809,0.134 3.617,-0.201 5.292,-1.072Zm29.341,-3.215c-1.675,0.87 -3.484,1.205 -5.292,1.071c1.808,0.134 3.617,-0.201 5.292,-1.071Zm-15.139,-6.163l2.679,3.416l-2.679,-3.416Z" style="fill:#b0dce3;"/><path d="M228.631,254.622c-0.469,0.335 -0.938,0.67 -1.474,0.938c0.469,-0.268 1.005,-0.603 1.474,-0.938m0.134,-0.134c-0.067,0 -0.067,0.067 0,0c-0.067,0.067 -0.067,0 0,0Zm29.274,-3.148c-0.469,0.402 -1.005,0.67 -1.541,0.938c0.536,-0.268 1.072,-0.603 1.541,-0.938Zm0.067,-0.067l0,0Zm2.411,-1.876l0,0Zm0.067,-0.067l0,0Zm-58.347,-53.59l39.122,50.375l-39.122,-50.375l-0.469,0.334l0.469,-0.334Z" style="fill:#a7d0d4;"/><path d="M287.312,218.85c-2.88,-3.751 0,-6.229 3.752,-9.177c3.751,-2.88 6.9,-5.091 9.847,-1.34c2.881,3.752 2.211,9.178 -1.541,12.058c-3.751,2.881 -9.177,2.211 -12.058,-1.541" style="fill:#faede4;"/><path d="M271.704,239.885c-2.88,-3.752 0,-6.23 3.752,-9.178c3.751,-2.88 6.899,-5.091 9.847,-1.339c2.88,3.751 2.21,9.177 -1.541,12.058c-3.751,2.88 -9.11,2.21 -12.058,-1.541" style="fill:#faede4;"/><path d="M255.493,233.521c1.072,0.067 2.144,0.67 3.148,1.943c2.881,3.751 2.211,9.177 -1.54,12.057c-1.742,1.34 -3.819,1.943 -5.895,1.809c-2.345,-0.201 -4.622,-1.273 -6.163,-3.282c-2.881,-3.752 0,-6.23 3.751,-9.178c2.479,-1.875 4.622,-3.483 6.699,-3.349" style="fill:#faede4;"/><path d="M226.085,236.736c1.072,0.067 2.144,0.67 3.149,1.943c2.88,3.751 2.21,9.177 -1.541,12.058c-1.742,1.34 -3.818,1.943 -5.895,1.809c-2.345,-0.201 -4.622,-1.273 -6.163,-3.283c-2.88,-3.751 0,-6.23 3.751,-9.177c2.479,-1.876 4.69,-3.484 6.699,-3.35" style="fill:#faede4;"/><path d="M287.982,219.654c-1.942,-3.349 0.804,-5.694 4.288,-8.373c3.483,-2.68 6.43,-4.756 9.177,-2.144c2.211,3.685 1.407,8.508 -2.077,11.187c-3.483,2.747 -8.373,2.345 -11.388,-0.67" style="fill:#f6e5d6;"/><path d="M272.441,240.689c-1.943,-3.35 0.804,-5.694 4.287,-8.374c3.484,-2.679 6.431,-4.756 9.178,-2.144c2.21,3.685 1.406,8.508 -2.077,11.188c-3.55,2.746 -8.373,2.411 -11.388,-0.67" style="fill:#f6e5d6;"/><path d="M256.699,235.129c0.871,0.067 1.675,0.402 2.478,1.205c2.211,3.685 1.407,8.508 -2.076,11.254c-1.742,1.34 -3.819,1.943 -5.895,1.809c-2.01,-0.134 -3.953,-1.005 -5.493,-2.478c-1.943,-3.35 0.804,-5.694 4.287,-8.374c2.479,-2.01 4.689,-3.55 6.699,-3.416" style="fill:#f6e5d6;"/><path d="M227.358,238.344c0.871,0.067 1.675,0.402 2.479,1.206c2.21,3.684 1.406,8.507 -2.077,11.254c-1.742,1.34 -3.818,1.943 -5.895,1.809c-2.01,-0.134 -3.952,-1.005 -5.493,-2.479c-1.943,-3.349 0.804,-5.694 4.287,-8.374c2.479,-1.942 4.689,-3.55 6.699,-3.416" style="fill:#f6e5d6;"/><path d="M171.155,107.583l0.603,0.737c0.201,0.268 0.201,0.67 -0.067,0.871l-4.287,3.55c-0.268,0.201 -0.67,0.201 -0.871,-0.067l-0.603,-0.737c-0.201,-0.268 -0.201,-0.67 0.067,-0.871l4.287,-3.55c0.268,-0.268 0.67,-0.201 0.871,0.067" style="fill:#c8c8c9;"/><path d="M120.445,108.588l54.863,-45.351l12.326,15.876l-54.863,45.351l-12.326,-15.876Z" style="fill:#2a2f33;"/><path d="M120.445,108.588l51.112,-42.27l12.795,15.475l-51.581,42.671l-12.326,-15.876Z" style="fill:#2f373d;"/><path d="M168.609,109.861c8.843,-7.302 10.116,-20.432 2.814,-29.274c-7.302,-8.843 -20.432,-10.048 -29.274,-2.747c-8.842,7.302 -10.115,20.432 -2.814,29.274c7.302,8.843 20.432,10.048 29.274,2.747" style="fill:#0e0e0e;"/><path d="M175.844,90.233c-0.603,-3.416 -2.077,-6.766 -4.421,-9.646c-7.302,-8.843 -20.432,-10.048 -29.274,-2.747c-3.215,2.68 -5.493,6.163 -6.632,9.848l40.327,2.545Z" style="fill:#212121;"/><path d="M176.983,90.568c0.402,-1.407 1.474,-3.55 4.019,-6.431l-1.34,-1.608l-3.751,3.149c-0.871,-2.479 -2.144,-4.823 -3.885,-6.967c-1.742,-2.143 -3.819,-3.818 -6.029,-5.091l3.751,-3.081l-1.34,-1.608c-3.215,1.943 -5.493,2.612 -6.966,2.746c-6.967,-2.143 -14.872,-0.87 -20.901,4.154c-5.962,4.89 -8.708,12.258 -8.038,19.359c-0.335,1.407 -1.34,3.685 -4.154,6.833l1.34,1.608l3.952,-3.216c0.871,2.479 2.144,4.823 3.886,6.9c1.741,2.144 3.818,3.818 6.096,5.158l-3.953,3.283l1.34,1.607c3.752,-2.277 6.23,-2.746 7.637,-2.746c15.072,4.086 29.944,-8.441 28.336,-24.049m-37.045,14.67c-6.765,-8.172 -5.56,-20.297 2.613,-27.063c8.172,-6.766 20.297,-5.627 27.063,2.546c6.766,8.172 5.56,20.297 -2.612,27.063c-8.173,6.699 -20.298,5.56 -27.064,-2.546Z" style="fill:#e3e3e3;"/><path d="M166.506,74.268l8.877,10.739l3.769,-3.116l-8.877,-10.739l-3.769,3.116Z" style="fill:#e3e3e3;"/><path d="M130.282,104.213l8.877,10.74l3.77,-3.116l-8.877,-10.739l-3.77,3.115Z" style="fill:#e3e3e3;"/><path d="M164.925,96.597l-0.201,0.536l2.546,0.938l0.201,-0.536l-2.546,-0.938Zm-6.632,-13.733l0.536,0.201l0.938,-2.545l-0.536,-0.201l-0.938,2.545Zm7.034,8.173l0.067,0.536l2.679,-0.469l-0.067,-0.536l-2.679,0.469Zm-2.412,-5.024l0.335,0.402l2.077,-1.742l-0.335,-0.402l-2.077,1.742Zm-10.249,-3.618l0.536,-0.066l-0.469,-2.68l-0.536,0.067l0.469,2.679Zm-5.024,2.479l0.402,-0.335l-1.742,-2.077l-0.402,0.268l1.742,2.144Zm-3.148,4.622l0.201,-0.536l-2.546,-0.937l-0.201,0.535l2.546,0.938Zm-0.402,5.56l-0.067,-0.536l-2.68,0.469l0.067,0.536l2.68,-0.469Zm2.411,5.024l-0.335,-0.402l-2.076,1.742l0.335,0.402l2.076,-1.742Zm4.622,3.216l-0.536,-0.201l-0.937,2.545l0.536,0.201l0.937,-2.545Zm5.627,0.402l-0.535,0.067l0.468,2.679l0.536,-0.067l-0.469,-2.679Zm5.025,-2.479l-0.402,0.335l1.741,2.077l0.402,-0.335l-1.741,-2.077Z" style="fill:#fff;"/><path d="M154.14,92.846l-7.168,-0.536l0,0.402l7.168,0.536c0,-0.067 0,-0.268 0,-0.402Z" style="fill:#fff;"/><path d="M162.58,96.999l0.134,-0.335l-6.899,-3.282c0.134,-0.402 0.067,-0.804 -0.201,-1.139c-0.134,-0.201 -0.335,-0.268 -0.536,-0.335l-0.067,-4.756l-0.804,0l0.067,4.756c-0.134,0.067 -0.201,0.134 -0.335,0.201c-0.469,0.402 -0.536,1.139 -0.134,1.674c0.402,0.469 1.139,0.536 1.675,0.134c0.067,-0.067 0.134,-0.134 0.201,-0.2l6.899,3.282Zm-8.306,-3.55l-0.067,-0.067c0,-0.067 0,-0.067 -0.067,-0.134c0,-0.134 0,-0.201 0.067,-0.268c0.268,-0.201 0.67,-0.201 0.871,0.067c0.201,0.268 0.201,0.67 -0.067,0.87c-0.134,-0.134 -0.536,-0.2 -0.737,-0.468Z" style="fill:#fff;"/><path d="M372.789,133.708c-23.512,-12.66 -45.083,-28.537 -63.303,-49.638l24.986,-0.335l39.724,37.916l-1.407,12.057Z" style="fill:#ff6033;"/><path d="M302.276,103.02l52.718,41.549l47.561,-60.347l-52.717,-41.548l-47.562,60.346Z" style="fill:#d8b091;"/><path d="M279.073,111.267c33.025,-45.15 97.669,25.724 84.405,42.605l-31.083,39.456c-3.751,4.689 -10.584,5.56 -15.273,1.809l-55.667,-43.878c-4.689,-3.751 -5.56,-10.584 -1.809,-15.273l19.427,-24.719Z" style="fill:#f0cbb0;"/><path d="M318.194,176.112c3.215,-4.086 9.177,-4.823 13.264,-1.608l2.21,1.742c4.087,3.215 4.823,9.177 1.541,13.264l-51.983,66.184c-3.215,4.086 -9.177,4.823 -13.264,1.608l-2.21,-1.742c-4.086,-3.215 -4.823,-9.177 -1.608,-13.264l52.05,-66.184Z" style="fill:#f0cbb0;"/><path d="M295.351,166.6c3.215,-4.087 9.177,-4.823 13.264,-1.541l2.21,1.742c4.087,3.215 4.823,9.177 1.541,13.263l-51.983,66.118c-3.215,4.086 -9.177,4.823 -13.263,1.54l-2.211,-1.741c-4.086,-3.216 -4.823,-9.178 -1.608,-13.264l52.05,-66.117Z" style="fill:#f0cbb0;"/><path d="M283.695,143.556c3.216,-4.087 9.177,-4.823 13.264,-1.608l2.21,1.742c4.087,3.215 4.823,9.177 1.541,13.263l-52.117,66.118c-3.215,4.086 -9.177,4.823 -13.263,1.607l-2.211,-1.741c-4.086,-3.216 -4.823,-9.178 -1.608,-13.264l52.184,-66.117Z" style="fill:#f0cbb0;"/><path d="M234.995,209.807c2.746,-3.55 5.761,-1.407 9.244,1.34c3.55,2.746 6.23,5.158 3.483,8.708c-2.746,3.551 -7.904,4.154 -11.388,1.34c-3.483,-2.746 -4.086,-7.838 -1.339,-11.388" style="fill:#f5decd;"/><path d="M274.049,117.43c3.215,-4.086 9.177,-4.823 13.263,-1.607l2.211,1.741c4.086,3.216 4.823,9.178 1.541,13.264l-52.117,66.117c-3.215,4.087 -9.177,4.823 -13.264,1.608l-2.21,-1.742c-4.087,-3.215 -4.823,-9.177 -1.541,-13.263l52.117,-66.118Z" style="fill:#f0cbb0;"/><path d="M274.049,117.43c3.215,-4.086 9.177,-4.823 13.263,-1.607l2.211,1.741c4.086,3.216 4.823,9.178 1.541,13.264l-52.117,66.117c-3.215,4.087 -9.177,4.823 -13.264,1.608l-2.21,-1.742c-4.087,-3.215 -4.823,-9.177 -1.541,-13.263l52.117,-66.118Z" style="fill:none;stroke:#f0cbb0;stroke-width:0.14px;"/><path d="M225.348,183.682c2.747,-3.551 5.761,-1.407 9.245,1.339c3.55,2.747 6.23,5.159 3.483,8.709c-2.746,3.483 -7.838,4.153 -11.388,1.34c-3.483,-2.814 -4.086,-7.905 -1.34,-11.388" style="fill:#f5decd;"/><path d="M341.171,147.039c0.268,-6.632 5.828,-11.79 12.46,-11.589l0.603,0c6.631,0.268 11.79,5.828 11.589,12.46l-1.005,64.778c-0.268,6.631 -5.828,11.789 -12.46,11.589l-0.603,0c-6.632,-0.268 -11.79,-5.828 -11.589,-12.46l1.005,-64.778Z" style="fill:#f0cbb0;"/><path d="M359.124,218.984c1.474,0 2.88,-0.334 4.153,-0.87c0.871,-1.608 1.474,-3.417 1.541,-5.426l0.201,-9.513c-1.675,-0.335 -3.685,-0.402 -5.895,-0.402c-5.694,0 -10.316,0.201 -10.316,5.895c0,5.694 4.622,10.316 10.316,10.316" style="fill:#faede4;"/><path d="M359.124,218.984c1.474,0 2.88,-0.334 4.153,-0.87c0.871,-1.608 1.474,-3.417 1.541,-5.426l0.134,-7.168c-1.608,-0.268 -3.484,-0.335 -5.493,-0.335c-5.694,0 -10.316,0.201 -10.316,5.895l0,0.067c1.071,4.488 5.091,7.837 9.981,7.837" style="fill:#f6e5d6;"/><path d="M279.073,111.267m38.183,-27.197l-12.259,15.608l12.259,-15.608Z" style="fill:#f4f4f4;"/><path d="M220.056,190.983m2.211,4.556c-1.139,-1.34 -1.876,-2.948 -2.211,-4.623c0.335,1.742 1.072,3.35 2.211,4.623Zm9.646,26.192c-1.139,-1.34 -1.875,-2.948 -2.21,-4.622c0.268,1.674 1.004,3.282 2.21,4.622Zm2.211,-15.273l-2.546,3.215l2.546,-3.215Z" style="fill:#b0dce3;"/><path d="M223.406,196.677c-0.402,-0.335 -0.804,-0.736 -1.139,-1.138c0.335,0.402 0.737,0.803 1.139,1.138m0.134,0.134c0,0 0,-0.067 0,0c0,-0.067 0,0 0,0Zm9.579,26.126c-0.469,-0.335 -0.871,-0.737 -1.206,-1.206c0.335,0.402 0.737,0.804 1.206,1.206Zm0.067,0l0,0Zm2.278,1.808l0,0Zm0.067,0.067l0,0Zm35.838,-65.648l-37.245,47.294l37.245,-47.294l-0.402,-0.335l0.402,0.335Z" style="fill:#a7d0d4;"/><path d="M269.494,242.363c2.746,-3.55 5.761,-1.406 9.244,1.34c3.55,2.747 6.23,5.158 3.483,8.709c-2.746,3.55 -7.904,4.086 -11.388,1.339c-3.483,-2.813 -4.086,-7.904 -1.339,-11.388" style="fill:#faede4;"/><path d="M246.651,232.851c2.746,-3.55 5.761,-1.407 9.244,1.34c3.55,2.746 6.23,5.158 3.483,8.708c-2.746,3.551 -7.837,4.154 -11.388,1.34c-3.483,-2.747 -4.086,-7.905 -1.339,-11.388" style="fill:#faede4;"/><path d="M248.861,216.506c0.201,1.005 -0.134,2.077 -1.072,3.349c-2.746,3.551 -7.904,4.154 -11.388,1.34c-1.607,-1.273 -2.612,-3.081 -2.947,-5.024c-0.402,-2.211 0.134,-4.488 1.608,-6.364c2.746,-3.55 5.761,-1.407 9.244,1.34c2.278,1.809 4.22,3.483 4.555,5.359" style="fill:#faede4;"/><path d="M239.215,190.38c0.201,1.005 -0.134,2.077 -1.072,3.35c-2.746,3.483 -7.838,4.153 -11.388,1.34c-1.608,-1.273 -2.612,-3.082 -2.947,-5.024c-0.402,-2.211 0.134,-4.489 1.607,-6.364c2.747,-3.551 5.761,-1.407 9.245,1.339c2.277,1.809 4.22,3.417 4.555,5.359" style="fill:#faede4;"/><path d="M324.625,64.711c26.259,10.986 46.356,26.795 63.974,48.767l-15.877,20.23c-16.01,-22.642 -36.91,-39.389 -63.303,-49.638l15.206,-19.359Z" style="fill:#ff8433;"/><path d="M268.958,243.167c2.612,-2.545 5.359,-0.536 8.641,2.01c3.283,2.545 5.828,4.823 4.019,7.904c-2.88,2.881 -7.502,3.216 -10.718,0.603c-3.282,-2.478 -4.019,-7.033 -1.942,-10.517" style="fill:#f6e5d6;"/><path d="M246.115,233.655c2.612,-2.546 5.359,-0.536 8.641,2.01c3.283,2.545 5.828,4.823 4.019,7.904c-2.88,2.881 -7.502,3.216 -10.718,0.603c-3.282,-2.479 -4.019,-7.034 -1.942,-10.517" style="fill:#f6e5d6;"/><path d="M247.655,218.047c0.134,0.803 0,1.607 -0.535,2.545c-2.881,2.881 -7.503,3.216 -10.786,0.603c-1.607,-1.273 -2.612,-3.081 -2.947,-5.024c-0.335,-1.876 0,-3.885 1.072,-5.56c2.612,-2.546 5.359,-0.536 8.641,2.01c2.278,1.875 4.22,3.483 4.555,5.426" style="fill:#f6e5d6;"/><path d="M238.009,191.854c0.134,0.804 0,1.608 -0.536,2.546c-2.88,2.88 -7.502,3.215 -10.785,0.603c-1.608,-1.273 -2.612,-3.082 -2.947,-5.024c-0.335,-1.876 0,-3.886 1.071,-5.56c2.613,-2.546 5.359,-0.536 8.642,2.009c2.278,1.876 4.287,3.551 4.555,5.426" style="fill:#f6e5d6;"/><path d="M366.961,126.005l15.542,-19.829c0.804,0.938 1.607,1.876 2.478,2.814l-15.675,19.962c-0.804,-1.005 -1.541,-2.009 -2.345,-2.947" style="fill:#ff6033;"/><path d="M358.119,116.024l15.206,-19.427c0.871,0.871 1.742,1.742 2.613,2.613l-15.273,19.493c-0.804,-0.871 -1.675,-1.809 -2.546,-2.679" style="fill:#ff6033;"/><path d="M348.54,107.047l15.072,-19.225c0.938,0.803 1.876,1.54 2.814,2.344l-15.073,19.226c-1.005,-0.737 -1.942,-1.541 -2.813,-2.345" style="fill:#ff6033;"/><path d="M338.089,99.143l15.006,-19.092c1.005,0.67 2.01,1.407 3.014,2.077l-15.005,19.091c-1.005,-0.67 -2.01,-1.407 -3.015,-2.076" style="fill:#ff6033;"/><path d="M326.902,92.176l15.006,-19.092c1.072,0.603 2.143,1.206 3.215,1.876l-15.005,19.091c-1.072,-0.669 -2.144,-1.272 -3.216,-1.875" style="fill:#ff6033;"/><path d="M314.912,86.281l15.072,-19.293c1.139,0.536 2.278,1.072 3.416,1.608l-15.072,19.226c-1.139,-0.536 -2.278,-1.005 -3.416,-1.541" style="fill:#ff6033;"/><path d="M405.949,107.918c-4.958,3.014 -10.719,4.957 -17.283,5.56c-17.551,-21.972 -37.648,-37.781 -63.974,-48.767c-1.072,-6.498 -0.402,-12.862 1.273,-19.025c14.402,-14.202 22.106,-31.819 35.771,-45.686c32.892,13.197 59.017,34.633 79.783,62.567c-14.134,13.8 -22.575,31.15 -35.57,45.351" style="fill:#ff6033;"/><path d="M325.898,45.686c14.402,-14.202 22.106,-31.819 35.771,-45.686c32.892,13.197 59.017,34.633 79.783,62.567c-14.134,13.867 -22.575,31.15 -35.57,45.418c-16.011,-23.58 -51.983,-53.122 -79.984,-62.299" style="fill:#ff8433;"/><path d="M401.594,102.09c11.12,-16.01 22.575,-33.159 31.418,-50.241c2.947,3.416 5.761,6.967 8.44,10.651c-14.134,13.867 -22.575,31.15 -35.57,45.418c-1.273,-1.876 -2.68,-3.885 -4.288,-5.828" style="fill:#ff9a33;"/><path d="M365.689,1.675c-10.584,15.072 -21.638,31.283 -30.681,47.628c-3.081,-1.406 -6.163,-2.612 -9.11,-3.617c14.402,-14.202 22.106,-31.819 35.771,-45.686c1.407,0.536 2.747,1.072 4.02,1.675" style="fill:#ff6033;"/><path d="M72.682,260.785c19.226,19.092 40.528,51.648 48.567,78.845l-29.81,-18.957l-24.116,-49.371l5.359,-10.517Z" style="fill:#21676d;"/><path d="M94.386,254.019c17.685,20.03 32.356,42.337 42.136,68.462l-23.513,-8.373l-24.116,-49.371l5.493,-10.718Z" style="fill:#c8c8c9;"/><path d="M149.84,307.207l-35.038,-57.248l-65.533,40.108l35.038,57.249l65.533,-40.109Z" style="fill:#f9cfa9;"/><path d="M174.504,307.543c-46.624,30.881 -82.663,-58.012 -64.375,-69.199l42.872,-26.259c5.158,-3.149 11.857,-1.541 14.938,3.617l36.978,60.423c3.148,5.092 1.541,11.79 -3.617,14.939l-26.796,16.479Z" style="fill:#fad9bb;"/><path d="M160.236,233.119c-4.488,2.746 -10.249,1.34 -12.996,-3.148l-1.474,-2.412c-2.746,-4.488 -1.339,-10.249 3.149,-12.996l71.811,-43.944c4.488,-2.747 10.249,-1.34 12.996,3.148l1.474,2.412c2.746,4.421 1.339,10.249 -3.149,12.996l-71.811,43.944Z" style="fill:#fad9bb;"/><path d="M178.39,250c-4.489,2.747 -10.317,1.34 -12.996,-3.148l-1.474,-2.412c-2.746,-4.488 -1.34,-10.249 3.149,-12.996l71.811,-43.944c4.421,-2.747 10.249,-1.34 12.996,3.148l1.473,2.412c2.747,4.488 1.34,10.249 -3.148,12.996l-71.811,43.944Z" style="fill:#fad9bb;"/><path d="M181.337,275.589c-4.488,2.747 -10.249,1.34 -12.996,-3.148l-1.473,-2.412c-2.747,-4.421 -1.34,-10.249 3.148,-12.995l71.811,-43.945c4.489,-2.746 10.25,-1.339 12.996,3.149l1.474,2.412c2.746,4.488 1.34,10.249 -3.149,12.995l-71.811,43.944Z" style="fill:#fad9bb;"/><path d="M250,230.372c-3.818,2.345 -5.895,-0.669 -8.24,-4.488c-2.344,-3.818 -4.086,-7.034 -0.268,-9.378c3.819,-2.345 8.843,-1.139 11.121,2.679c2.411,3.819 1.205,8.843 -2.613,11.187" style="fill:#f5decd;"/><path d="M181.337,303.524c-4.488,2.746 -10.249,1.339 -12.996,-3.149l-1.473,-2.411c-2.747,-4.489 -1.34,-10.25 3.148,-12.996l71.811,-43.944c4.489,-2.747 10.25,-1.34 12.996,3.148l1.474,2.412c2.746,4.488 1.34,10.249 -3.149,12.995l-71.811,43.945Z" style="fill:#fad9bb;"/><path d="M249.933,258.24c-3.818,2.344 -5.895,-0.67 -8.24,-4.489c-2.344,-3.818 -4.086,-7.033 -0.267,-9.378c3.818,-2.345 8.842,-1.139 11.12,2.68c2.411,3.885 1.205,8.842 -2.613,11.187" style="fill:#f5decd;"/><path d="M128.617,252.479c-2.545,6.162 -9.579,9.043 -15.675,6.497l-0.536,-0.201c-6.163,-2.545 -9.043,-9.579 -6.498,-15.675l23.446,-60.356c2.546,-6.163 9.58,-9.044 15.675,-6.498l0.536,0.201c6.163,2.545 9.044,9.579 6.498,15.675l-23.446,60.357Z" style="fill:#fad9bb;"/><path d="M136.79,178.792c-1.407,-0.536 -2.814,-0.737 -4.22,-0.603c-1.407,1.205 -2.546,2.746 -3.283,4.555l-3.483,8.909c1.407,0.938 3.282,1.675 5.359,2.412c5.359,2.009 9.713,3.349 11.723,-1.943c1.943,-5.426 -0.804,-11.388 -6.096,-13.33" style="fill:#faede4;"/><path d="M136.79,178.792c-1.407,-0.536 -2.814,-0.737 -4.22,-0.603c-1.407,1.205 -2.546,2.746 -3.283,4.555l-2.612,6.699c1.406,0.804 3.148,1.54 5.091,2.21c5.359,2.01 9.713,3.35 11.723,-1.942l0,-0.067c0.469,-4.623 -2.211,-9.178 -6.699,-10.852" style="fill:#f6e5d6;"/><path d="M174.437,307.543c0.067,0 0.067,0 0,0c0.067,0 0.067,0 0,0m-45.217,12.259l16.948,-10.383l-16.948,10.383Z" style="fill:#f4f4f4;"/><path d="M257.436,253.215m-0.402,-5.091c0.603,1.675 0.737,3.417 0.469,5.091c0.268,-1.674 0.134,-3.416 -0.469,-5.091Zm0,-27.867c0.603,1.675 0.737,3.417 0.469,5.091c0.268,-1.674 0.134,-3.416 -0.469,-5.091Zm-7.369,13.599l3.483,-2.144l-3.483,2.144Z" style="fill:#b0dce3;"/><path d="M256.297,246.718c0.268,0.468 0.536,0.937 0.67,1.473c-0.134,-0.536 -0.402,-1.005 -0.67,-1.473m-0.067,-0.134l0,0Zm0.067,-27.867c0.268,0.468 0.536,1.004 0.737,1.54c-0.201,-0.536 -0.469,-1.005 -0.737,-1.54Zm-0.067,-0.067c0.067,0.067 0.067,0.067 0,0c0.067,0.067 0.067,0.067 0,0Zm-1.474,-2.412l0,0Zm-0.067,-0.067l0,0Zm-56.404,49.102l51.313,-31.417l-51.313,31.417l0.268,0.469l-0.268,-0.469Z" style="fill:#a7d0d4;"/><path d="M228.899,187.902c-3.819,2.345 -5.895,-0.67 -8.24,-4.488c-2.344,-3.819 -4.086,-7.034 -0.268,-9.379c3.819,-2.344 8.843,-1.138 11.12,2.68c2.412,3.818 1.206,8.842 -2.612,11.187" style="fill:#faede4;"/><path d="M247.053,204.716c-3.819,2.345 -5.895,-0.67 -8.24,-4.488c-2.345,-3.819 -4.086,-7.034 -0.268,-9.379c3.818,-2.344 8.842,-1.138 11.12,2.68c2.412,3.885 1.206,8.842 -2.612,11.187" style="fill:#faede4;"/><path d="M239.349,219.252c0.201,-1.004 0.871,-1.942 2.21,-2.746c3.819,-2.345 8.843,-1.139 11.121,2.679c1.071,1.809 1.406,3.819 1.071,5.694c-0.402,2.211 -1.674,4.154 -3.751,5.426c-3.818,2.345 -5.895,-0.669 -8.24,-4.488c-1.473,-2.411 -2.746,-4.622 -2.411,-6.565" style="fill:#faede4;"/><path d="M239.282,247.186c0.201,-1.004 0.871,-1.942 2.21,-2.746c3.819,-2.345 8.843,-1.139 11.121,2.68c1.071,1.808 1.406,3.818 1.071,5.694c-0.402,2.21 -1.674,4.22 -3.751,5.426c-3.818,2.344 -5.895,-0.67 -8.24,-4.489c-1.473,-2.478 -2.746,-4.689 -2.411,-6.565" style="fill:#faede4;"/><path d="M94.386,254.019c7.168,26.796 20.968,49.773 42.136,68.462l-73.352,45.15l-42.136,-68.462l73.352,-45.15Z" style="fill:#eaecec;"/><path d="M98.808,267.819c7.837,20.967 20.297,39.255 37.781,54.662l-15.608,9.58c-18.221,-15.006 -29.676,-32.289 -37.983,-54.529l15.81,-9.713Z" style="fill:#fffffd;"/><path d="M72.682,260.718c7.637,31.418 24.451,57.342 48.567,78.912c-25.791,10.316 -47.16,29.408 -69.936,48.165c-30.681,-20.7 -46.49,-48.768 -51.313,-82.329c24.585,-13.799 49.169,-28.336 72.682,-44.748" style="fill:#278086;"/><path d="M39.925,379.22c22.173,-15.541 50.241,-32.154 68.73,-51.916c3.952,4.288 8.105,8.374 12.594,12.326c-25.791,10.316 -46.959,29.274 -69.735,48.031l-11.589,-8.441Z" style="fill:#2e8b93;"/><path d="M74.29,266.948c-23.044,16.01 -51.916,35.169 -70.539,56.27l-3.55,-17.953c0.402,-0.201 0.737,-0.402 1.139,-0.67c0.402,-0.201 0.737,-0.402 1.139,-0.669c0.401,-0.201 0.736,-0.402 1.138,-0.67c0.402,-0.201 0.737,-0.402 1.139,-0.67c0.402,-0.201 0.737,-0.402 1.139,-0.67c0.402,-0.201 0.737,-0.402 1.139,-0.67c0.402,-0.201 0.737,-0.402 1.139,-0.67c0.401,-0.201 0.736,-0.469 1.138,-0.67c0.402,-0.201 0.737,-0.469 1.139,-0.67c0.402,-0.201 0.737,-0.469 1.139,-0.67c0.402,-0.201 0.737,-0.468 1.139,-0.669c0.402,-0.201 0.737,-0.469 1.139,-0.67c0.401,-0.201 0.736,-0.469 1.138,-0.67c0.402,-0.201 0.737,-0.469 1.139,-0.67c0.402,-0.201 0.737,-0.469 1.139,-0.67c0.402,-0.201 0.737,-0.469 1.139,-0.67c0.402,-0.201 0.737,-0.469 1.139,-0.67c0.401,-0.201 0.736,-0.469 1.138,-0.67c0.402,-0.201 0.737,-0.469 1.139,-0.669c0.402,-0.201 0.737,-0.469 1.139,-0.67c0.402,-0.201 0.737,-0.469 1.139,-0.67c0.402,-0.201 0.737,-0.469 1.139,-0.67c0.401,-0.201 0.736,-0.469 1.138,-0.67c0.402,-0.201 0.737,-0.469 1.139,-0.67c0.402,-0.201 0.737,-0.469 1.139,-0.67c0.402,-0.201 0.737,-0.469 1.139,-0.67c0.402,-0.201 0.737,-0.469 1.139,-0.67c0.401,-0.201 0.736,-0.468 1.138,-0.669c0.402,-0.201 0.737,-0.469 1.139,-0.67c0.402,-0.201 0.737,-0.469 1.139,-0.67c0.402,-0.201 0.737,-0.469 1.139,-0.67c0.402,-0.201 0.737,-0.469 1.139,-0.67c0.401,-0.201 0.736,-0.469 1.138,-0.67c0.402,-0.201 0.737,-0.469 1.139,-0.67c0.402,-0.201 0.737,-0.469 1.139,-0.67c0.402,-0.201 0.737,-0.469 1.139,-0.669c0.402,-0.201 0.737,-0.469 1.139,-0.67c0.401,-0.201 0.736,-0.469 1.138,-0.67c0.402,-0.201 0.737,-0.469 1.139,-0.737c0.402,-0.268 0.737,-0.469 1.139,-0.737c0.402,-0.268 0.737,-0.469 1.139,-0.737c0.402,-0.268 0.737,-0.469 1.139,-0.737c0.401,-0.268 0.736,-0.469 1.138,-0.737c0.402,-0.268 0.737,-0.469 1.139,-0.736c0.402,-0.268 0.737,-0.469 1.139,-0.737c0.402,-0.268 0.737,-0.469 1.139,-0.737c0.402,-0.268 0.737,-0.469 1.139,-0.737c0.401,-0.268 0.736,-0.469 1.138,-0.737c0.402,-0.268 0.737,-0.469 1.139,-0.737c0.402,-0.268 0.737,-0.469 1.139,-0.737c0.402,-0.268 0.737,-0.469 1.139,-0.737c0.402,-0.268 0.737,-0.468 1.139,-0.736c0.401,-0.268 0.736,-0.469 1.138,-0.737c0.402,-0.268 0.737,-0.469 1.139,-0.737c0.402,-0.268 0.737,-0.469 1.139,-0.737c0.402,-0.268 0.737,-0.469 1.139,-0.737c0.402,-0.268 0.737,-0.469 1.139,-0.737c0.401,-0.268 0.736,-0.469 1.138,-0.737c0.402,-0.268 0.737,-0.469 1.139,-0.737c0.402,-0.267 0.737,-0.535 1.139,-0.736c0.402,-0.268 0.737,-0.536 1.139,-0.737c0.402,-0.268 0.737,-0.536 1.072,-0.737c0.334,-0.268 0.736,-0.536 1.071,-0.737c0.335,-0.268 0.737,-0.536 1.072,-0.737c0.268,2.211 0.804,4.287 1.407,6.297" style="fill:#21676d;"/><path d="M61.562,285.035c2.211,3.617 1.072,8.306 -2.478,10.517c-3.618,2.211 -8.307,1.072 -10.518,-2.479c-2.21,-3.617 -1.071,-8.306 2.479,-10.517c3.55,-2.21 8.307,-1.139 10.517,2.479" style="fill:#9e9e9f;"/><path d="M58.682,286.777c1.272,2.009 0.603,4.689 -1.407,5.961c-2.01,1.273 -4.689,0.603 -5.962,-1.406c-1.273,-2.01 -0.603,-4.689 1.407,-5.962c2.076,-1.273 4.756,-0.603 5.962,1.407" style="fill:#b6b7b8;"/><path d="M58.213,291.935c-0.268,0.268 -0.603,0.536 -0.938,0.803c-2.01,1.273 -4.689,0.603 -5.962,-1.406c-0.737,-1.139 -0.804,-2.546 -0.402,-3.752c0.268,-0.268 0.603,-0.536 0.938,-0.803c2.01,-1.273 4.689,-0.603 5.962,1.406c0.737,1.206 0.871,2.546 0.402,3.752" style="fill:#eaecec;"/><path d="M229.703,187.299c-3.35,1.474 -5.226,-1.34 -7.436,-4.89c-2.144,-3.55 -3.818,-6.498 -1.005,-8.776c3.684,-1.674 8.106,-0.401 10.316,3.149c2.144,3.483 1.273,8.038 -1.875,10.517" style="fill:#f6e5d6;"/><path d="M247.856,204.18c-3.349,1.474 -5.225,-1.34 -7.435,-4.89c-2.144,-3.55 -3.819,-6.498 -1.005,-8.776c3.684,-1.674 8.105,-0.401 10.316,3.149c2.144,3.416 1.273,7.972 -1.876,10.517" style="fill:#f6e5d6;"/><path d="M240.957,218.315c0.134,-0.804 0.602,-1.541 1.406,-2.211c3.685,-1.675 8.106,-0.402 10.317,3.148c1.071,1.809 1.406,3.819 1.071,5.694c-0.335,1.876 -1.339,3.618 -2.947,4.891c-3.35,1.473 -5.225,-1.34 -7.436,-4.891c-1.474,-2.545 -2.746,-4.756 -2.411,-6.631" style="fill:#f6e5d6;"/><path d="M240.957,246.182c0.134,-0.804 0.602,-1.541 1.406,-2.211c3.685,-1.675 8.106,-0.402 10.317,3.149c1.071,1.808 1.406,3.818 1.071,5.694c-0.335,1.875 -1.339,3.617 -2.947,4.89c-3.35,1.473 -5.225,-1.34 -7.436,-4.89c-1.541,-2.546 -2.813,-4.757 -2.411,-6.632" style="fill:#f6e5d6;"/><path d="M500,304.126c-0.67,26.863 -11.656,47.897 -34.767,62.3l-107.985,-61.027l34.767,-62.031l107.985,60.758Z" style="fill:#c6a482;"/><path d="M379.488,220.391c52.72,27.063 -10.718,106.444 -30.613,95.391l-46.49,-25.991c-5.56,-3.081 -7.57,-10.115 -4.421,-15.675l36.709,-65.515c3.082,-5.56 10.115,-7.569 15.675,-4.421l29.14,16.211Z" style="fill:#c6a482;"/><path d="M318.127,272.106c4.823,2.68 6.565,8.843 3.885,13.666l-1.473,2.612c-2.68,4.823 -8.843,6.565 -13.666,3.819l-77.84,-43.543c-4.823,-2.679 -6.565,-8.842 -3.886,-13.665l1.474,-2.613c2.68,-4.823 8.843,-6.565 13.666,-3.818l77.84,43.542Z" style="fill:#c6a482;"/><path d="M324.29,246.651c4.823,2.679 6.565,8.842 3.818,13.665l-1.473,2.613c-2.68,4.823 -8.843,6.565 -13.666,3.818l-77.84,-43.542c-4.824,-2.68 -6.565,-8.843 -3.819,-13.666l1.474,-2.612c2.68,-4.824 8.842,-6.565 13.666,-3.886l77.84,43.61Z" style="fill:#c6a482;"/><path d="M346.463,230.64c4.823,2.68 6.565,8.843 3.885,13.666l-1.473,2.613c-2.68,4.823 -8.776,6.564 -13.666,3.818l-77.84,-43.542c-4.823,-2.68 -6.565,-8.843 -3.819,-13.666l1.474,-2.613c2.68,-4.823 8.843,-6.564 13.666,-3.885l77.773,43.609Z" style="fill:#c6a482;"/><path d="M269.025,190.648c4.153,2.345 2.411,5.761 0.134,9.915c-2.345,4.153 -4.355,7.435 -8.508,5.091c-4.153,-2.345 -5.627,-7.57 -3.282,-11.723c2.344,-4.086 7.569,-5.56 11.656,-3.283" style="fill:#f5decd;"/><path d="M372.253,216.171c4.824,2.679 6.565,8.842 3.886,13.666l-1.474,2.612c-2.679,4.823 -8.842,6.565 -13.666,3.818l-77.84,-43.542c-4.823,-2.679 -6.565,-8.842 -3.818,-13.666l1.474,-2.612c2.679,-4.823 8.842,-6.565 13.665,-3.818l77.773,43.542Z" style="fill:#c6a482;"/><path d="M294.815,176.246c4.153,2.345 2.412,5.761 0.134,9.914c-2.344,4.154 -4.354,7.436 -8.507,5.091c-4.154,-2.344 -5.627,-7.569 -3.283,-11.723c2.278,-4.153 7.57,-5.627 11.656,-3.282" style="fill:#f5decd;"/><path d="M352.425,291.399c6.967,-0.871 13.331,4.153 14.134,11.12l0.067,0.603c0.871,6.966 -4.153,13.33 -11.12,14.134l-67.926,9.646c-6.966,0.871 -13.33,-4.153 -14.134,-11.12l-0.067,-0.602c-0.871,-6.967 4.153,-13.331 11.12,-14.135l67.926,-9.646Z" style="fill:#c6a482;"/><path d="M280.078,322.012c0.268,1.541 0.804,2.948 1.607,4.221c1.809,0.669 3.819,0.937 5.895,0.669l10.049,-1.339c0.134,-1.809 -0.201,-3.953 -0.536,-6.23c-0.938,-5.962 -1.943,-10.718 -7.905,-9.78c-5.962,0.937 -10.048,6.497 -9.11,12.459" style="fill:#faede4;"/><path d="M280.078,322.012c0.268,1.541 0.804,2.948 1.607,4.221c1.809,0.669 3.819,0.937 5.895,0.669l7.57,-1.004c0.067,-1.742 -0.201,-3.685 -0.536,-5.828c-0.938,-5.962 -1.943,-10.718 -7.904,-9.781l-0.067,0c-4.556,1.876 -7.369,6.699 -6.565,11.723" style="fill:#f6e5d6;"/><path d="M379.555,220.458c0,-0.067 -0.067,-0.067 0,0c-0.067,-0.067 0,-0.067 0,0m34.767,35.37l-18.355,-10.249l18.355,10.249Z" style="fill:#f4f4f4;"/><path d="M286.308,171.892m-4.422,3.081c1.206,-1.407 2.747,-2.478 4.422,-3.014c-1.675,0.536 -3.216,1.54 -4.422,3.014Zm-25.79,14.403c1.206,-1.407 2.746,-2.479 4.421,-3.015c-1.675,0.536 -3.215,1.608 -4.421,3.015Zm16.345,-0.201l-3.751,-2.144l3.751,2.144Z" style="fill:#b0dce3;"/><path d="M280.882,176.38c0.268,-0.536 0.602,-1.005 1.004,-1.407c-0.402,0.402 -0.736,0.871 -1.004,1.407m-0.067,0.134c0,0 0,-0.067 0,0c0,-0.067 0,0 0,0Zm-25.791,14.335c0.335,-0.535 0.67,-1.004 1.005,-1.473c-0.335,0.469 -0.67,0.938 -1.005,1.473Zm0,0.067l0,0Zm-1.541,2.68l0,0Zm0,0.067l0,0Zm74.625,26.661l-55.667,-31.149l55.667,31.149l0.268,-0.536l-0.268,0.536Z" style="fill:#a7d0d4;"/><path d="M240.756,232.181c4.153,2.345 2.411,5.761 0.134,9.914c-2.345,4.154 -4.355,7.436 -8.508,5.091c-4.153,-2.344 -5.627,-7.569 -3.282,-11.722c2.277,-4.154 7.502,-5.627 11.656,-3.283" style="fill:#faede4;"/><path d="M246.919,206.659c4.153,2.344 2.411,5.761 0.134,9.914c-2.345,4.153 -4.355,7.436 -8.508,5.091c-4.153,-2.345 -5.627,-7.57 -3.282,-11.723c2.277,-4.086 7.502,-5.56 11.656,-3.282" style="fill:#faede4;"/><path d="M264.335,206.257c-1.004,0.335 -2.21,0.201 -3.684,-0.603c-4.153,-2.345 -5.627,-7.57 -3.282,-11.723c1.072,-1.943 2.813,-3.283 4.756,-3.952c2.21,-0.737 4.756,-0.603 6.967,0.669c4.153,2.345 2.411,5.761 0.134,9.915c-1.541,2.679 -2.948,5.024 -4.891,5.694" style="fill:#faede4;"/><path d="M290.126,191.787c-1.005,0.335 -2.211,0.201 -3.684,-0.603c-4.154,-2.344 -5.627,-7.569 -3.283,-11.723c1.072,-1.942 2.814,-3.282 4.756,-3.952c2.211,-0.737 4.756,-0.603 6.967,0.603c4.153,2.345 2.412,5.761 0.134,9.914c-1.541,2.814 -2.947,5.158 -4.89,5.761" style="fill:#faede4;"/><path d="M239.818,231.712c3.081,2.278 1.474,5.56 -0.67,9.379c-2.144,3.818 -4.086,6.899 -7.57,5.493c-3.483,-2.546 -4.622,-7.302 -2.411,-11.12c2.009,-3.819 6.631,-5.359 10.651,-3.752" style="fill:#f6e5d6;"/><path d="M245.914,206.19c3.081,2.277 1.473,5.56 -0.67,9.378c-2.144,3.818 -4.086,6.9 -7.57,5.493c-3.483,-2.545 -4.622,-7.302 -2.411,-11.12c2.076,-3.818 6.698,-5.359 10.651,-3.751" style="fill:#f6e5d6;"/><path d="M262.594,205.252c-0.804,0.268 -1.742,0.268 -2.747,-0.134c-3.483,-2.546 -4.622,-7.302 -2.478,-11.12c1.072,-1.943 2.813,-3.283 4.756,-3.952c1.943,-0.67 4.019,-0.603 6.029,0.201c3.081,2.277 1.474,5.56 -0.67,9.378c-1.608,2.679 -2.948,4.957 -4.89,5.627" style="fill:#f6e5d6;"/><path d="M288.384,190.849c-0.804,0.268 -1.741,0.268 -2.746,-0.134c-3.484,-2.545 -4.622,-7.301 -2.479,-11.12c1.072,-1.942 2.814,-3.282 4.756,-3.952c1.943,-0.67 4.02,-0.603 6.029,0.201c3.082,2.278 1.474,5.56 -0.67,9.378c-1.607,2.613 -3.014,4.958 -4.89,5.627" style="fill:#f6e5d6;"/><path d="M424.705,293.073c-0.402,-0.268 -1.005,-0.067 -1.206,0.335l-7.033,12.326c-0.268,0.402 -0.067,1.005 0.335,1.206c0.402,0.268 1.004,0.067 1.205,-0.335l7.034,-12.326c0.268,-0.402 0.134,-0.938 -0.335,-1.206Z" style="fill:#302e2d;"/><path d="M383.842,286.509c-0.602,-0.335 -1.406,-0.134 -1.741,0.468l-1.675,2.948c-0.335,0.603 -0.134,1.407 0.469,1.809c0.603,0.335 1.407,0.134 1.742,-0.469l1.674,-2.948c0.335,-0.603 0.134,-1.406 -0.469,-1.808Z" style="fill:#302e2d;"/><path d="M389.202,277.13c-0.402,-0.268 -1.005,-0.067 -1.206,0.335l-3.551,6.163c-0.268,0.402 -0.067,1.005 0.335,1.206c0.402,0.268 1.005,0.067 1.206,-0.335l3.55,-6.163c0.201,-0.402 0.067,-1.005 -0.334,-1.206Z" style="fill:#302e2d;"/><path d="M395.498,327.036l-19.024,-10.718c-0.335,-0.938 -0.201,-2.009 0.536,-3.282c0.067,-0.134 0.134,-0.201 0.201,-0.335c0.201,-0.402 0.402,-0.804 0.603,-1.206c1.473,-3.148 2.411,-6.766 0.87,-10.115c0,-0.067 -0.067,-0.067 -0.067,-0.134c0,-0.067 -0.067,-0.067 -0.067,-0.134c-0.803,-1.541 -1.071,-3.751 -0.201,-5.292c5.359,-9.512 10.786,-18.958 16.145,-28.47l0.268,-0.469l0.133,-0.268l0.134,-0.201c0.134,-0.268 0.335,-0.469 0.536,-0.737c1.273,-1.674 3.417,-2.411 5.426,-2.545c0.335,0 0.67,-0.067 1.005,-0.134c3.484,-1.273 5.091,-3.953 6.565,-6.096c0.469,-0.737 0.938,-1.407 1.541,-1.943c0.335,-0.335 0.737,-0.603 1.139,-0.804l19.694,11.053c0.067,0.469 0,1.005 -0.067,1.474c-0.134,0.737 -0.469,1.541 -0.871,2.278c-1.071,2.344 -2.612,5.091 -1.875,8.708c0.134,0.335 0.268,0.603 0.402,0.938c0.335,0.67 0.602,1.474 0.736,2.278c0.469,1.138 0.268,2.411 -0.134,3.684c-0.067,0.268 -0.2,0.603 -0.334,0.804l-0.134,0.201l-0.134,0.268l-0.268,0.469c-5.359,9.512 -10.785,18.957 -16.145,28.47c-0.87,1.54 -2.947,2.478 -4.689,2.545c-0.067,0 -0.134,0 -0.134,0c-0.067,0 -0.067,0 -0.134,0c-0.67,0.067 -1.272,0.201 -1.808,0.402c-2.68,0.938 -4.823,3.216 -6.431,5.56c-0.268,0.335 -0.469,0.737 -0.737,1.139c-0.067,0.134 -0.134,0.201 -0.201,0.335c-0.737,1.34 -1.541,2.076 -2.479,2.277m7.57,-36.977c-0.201,0.335 -0.067,0.737 0.268,0.938c0.335,0.201 0.737,0.067 0.938,-0.268c0.067,-0.134 0.067,-0.268 0.067,-0.402c0,-0.134 -0.067,-0.268 -0.201,-0.402c-0.067,-0.067 -0.067,-0.067 -0.134,-0.134c-0.335,-0.201 -0.737,-0.067 -0.938,0.268Z" style="fill:#2f373d;"/><path d="M401.058,263.13c0.335,0 0.67,-0.067 1.005,-0.134c3.484,-1.273 5.091,-3.953 6.565,-6.096c0.469,-0.737 0.938,-1.407 1.541,-1.943c0.335,-0.335 0.737,-0.603 1.139,-0.804l9.847,5.56l-17.082,30.078c-0.335,-0.201 -0.737,-0.067 -0.938,0.268c-0.201,0.335 -0.067,0.737 0.268,0.938l-17.417,30.68l-9.512,-5.359c-0.335,-0.938 -0.201,-2.009 0.536,-3.282c0.067,-0.134 0.134,-0.201 0.201,-0.335c0.201,-0.402 0.402,-0.804 0.603,-1.206c1.473,-3.148 2.411,-6.766 0.87,-10.115c0,-0.067 -0.067,-0.067 -0.067,-0.134c0,-0.067 -0.067,-0.067 -0.067,-0.134c-0.803,-1.541 -1.071,-3.751 -0.201,-5.292c5.359,-9.512 10.786,-18.958 16.145,-28.47l0.268,-0.469l0.133,-0.268l0.134,-0.201c0.134,-0.268 0.335,-0.469 0.536,-0.737c1.34,-1.674 3.417,-2.411 5.493,-2.545Z" style="fill:#2a2f33;"/><path d="M401.058,263.13c1.206,-0.067 2.278,0.469 3.35,1.072l21.369,12.124c1.072,0.603 1.943,1.273 2.546,2.077c0.067,0.134 0.134,0.201 0.134,0.335c0.937,1.809 1.406,4.019 0.602,5.962c-0.067,0.268 -0.2,0.603 -0.334,0.804l-0.134,0.201l-0.134,0.268l-0.268,0.469c-5.359,9.512 -10.785,18.957 -16.145,28.47c-0.87,1.54 -2.947,2.478 -4.689,2.545c-0.067,0 -0.134,0 -0.134,0c-0.067,0 -0.067,0 -0.134,0c-1.674,0.201 -2.746,-0.268 -4.22,-1.139l-21.168,-12.058c-1.608,-0.937 -2.278,-1.406 -3.015,-3.014c0,-0.067 -0.067,-0.067 -0.067,-0.134c0,-0.067 -0.067,-0.067 -0.067,-0.134c-0.803,-1.541 -1.071,-3.751 -0.201,-5.292c5.359,-9.512 10.786,-18.958 16.145,-28.47l0.268,-0.469l0.133,-0.268l0.134,-0.201c0.134,-0.268 0.335,-0.469 0.536,-0.737c1.34,-1.54 3.417,-2.277 5.493,-2.411Zm2.01,26.929c-0.201,0.335 -0.067,0.737 0.268,0.938c0.335,0.201 0.737,0.067 0.938,-0.268c0.067,-0.134 0.067,-0.268 0.067,-0.402c0,-0.134 -0.067,-0.268 -0.201,-0.402c-0.067,-0.067 -0.067,-0.067 -0.134,-0.134c-0.335,-0.201 -0.737,-0.067 -0.938,0.268Z" style="fill:#596163;"/><path d="M427.519,278.939c-0.603,-0.67 -1.407,-1.273 -2.211,-1.742l-21.369,-12.125c-0.871,-0.469 -1.809,-1.004 -2.814,-0.937c-1.741,0.133 -3.617,0.736 -4.689,2.143c-0.134,0.201 -0.268,0.335 -0.402,0.536l-0.536,1.005c-5.359,9.512 -10.785,18.958 -16.144,28.47c-0.737,1.273 -0.402,3.081 0.201,4.354c0,0.067 0.067,0.067 0.067,0.134c0,0.067 0,0.067 0.067,0.134c0.603,1.407 1.206,1.742 2.613,2.546l21.168,12.057c1.273,0.737 2.211,1.139 3.617,1.005l0.268,0c1.407,-0.067 3.149,-0.804 3.819,-2.009c5.359,-9.513 10.785,-18.958 16.144,-28.47l0.536,-1.005c0.134,-0.201 0.201,-0.402 0.268,-0.603l0,-0.067l0,-0.067c0.67,-1.675 0.201,-3.617 -0.603,-5.158c0.067,-0.067 0,-0.134 0,-0.201Zm-23.647,12.058c0.201,-0.067 0.335,-0.201 0.402,-0.335l0,0.067c-0.134,0.134 -0.268,0.201 -0.402,0.268Zm0.469,-0.536c0,-0.134 0,-0.268 -0.067,-0.402c0.067,0.067 0.067,0.134 0.067,0.268c0,0 0,0.067 0,0.134Z" style="fill:#fff;"/><path d="M392.484,290.662l0,-0.603l-2.814,0l0,0.603l2.814,0Zm11.589,10.919l-0.603,0l0,2.813l0.603,0l0,-2.813Zm-9.914,-5.359l-0.268,-0.469l-2.479,1.407l0.268,0.469l2.479,-1.407Zm4.22,4.019l-0.469,-0.268l-1.407,2.479l0.469,0.268l1.407,-2.479Zm11.254,-0.335l-0.469,0.268l1.407,2.412l0.469,-0.268l-1.407,-2.412Zm4.019,-4.22l-0.268,0.469l2.479,1.407l0.268,-0.469l-2.479,-1.407Zm1.34,-5.627l0,0.603l2.813,0l0,-0.603l-2.813,0Zm-1.675,-5.627l0.268,0.469l2.479,-1.407l-0.268,-0.469l-2.479,1.407Zm-4.22,-3.952l0.469,0.268l1.407,-2.479l-0.469,-0.268l-1.407,2.479Zm-5.694,-1.34l0.603,0l0,-2.814l-0.603,0l0,2.814Zm-5.56,1.608l0.469,-0.268l-1.407,-2.479l-0.469,0.335l1.407,2.412Zm-4.019,4.22l0.268,-0.469l-2.479,-1.407l-0.268,0.469l2.479,1.407Z" style="fill:#060000;"/><path d="M404.341,290.327l7.101,-2.144l-0.134,-0.402l-7.168,2.144c0.134,0.134 0.201,0.268 0.201,0.402Z" style="fill:#060000;"/><path d="M394.628,289.456l-0.067,0.335l7.904,0.67c0,0.402 0.201,0.804 0.603,1.005c0.201,0.134 0.402,0.134 0.603,0.134l1.809,4.555l0.803,-0.335l-1.808,-4.555c0.067,-0.067 0.134,-0.201 0.201,-0.268c0.335,-0.603 0.134,-1.34 -0.469,-1.675c-0.603,-0.335 -1.34,-0.134 -1.675,0.469c-0.067,0.067 -0.067,0.201 -0.134,0.268l-7.77,-0.603Zm9.378,0.335l0.067,0.067c0,0 0.067,0.067 0.067,0.134c0.067,0.067 0.067,0.201 0.067,0.335c-0.201,0.335 -0.603,0.402 -0.938,0.268c-0.335,-0.201 -0.402,-0.603 -0.268,-0.938c0.268,0.067 0.67,-0.067 1.005,0.134Z" style="fill:#060000;"/><path d="M205.654,392.216c26.326,-6.364 65.246,-7.436 92.578,0l-31.753,15.407l-54.662,-5.359l-6.163,-10.048Z" style="fill:#192020;"/><path d="M211.281,370.177c26.326,-4.555 53.054,-5.359 80.453,0l-19.427,15.675l-54.662,-5.359l-6.364,-10.316Z" style="fill:#c8c8c9;"/><path d="M285.677,350.844l-67.122,-0.184l-0.21,76.836l67.122,0.183l0.21,-76.835Z" style="fill:#d8b091;"/><path d="M298.834,330.051c1.876,55.935 -92.711,39.992 -92.711,18.489l0.134,-50.242c0,-6.028 4.89,-10.852 10.919,-10.852l70.873,0.201c6.029,0 10.852,4.891 10.852,10.919l-0.067,31.485Z" style="fill:#f0cbb0;"/><path d="M228.028,303.189c0,5.225 -4.287,9.445 -9.512,9.445l-2.814,0c-5.225,0 -9.445,-4.287 -9.445,-9.512l0.201,-84.138c0,-5.225 4.287,-9.445 9.512,-9.445l2.813,0c5.226,0 9.446,4.287 9.446,9.512l-0.201,84.138Z" style="fill:#f0cbb0;"/><path d="M251.876,296.557c0,5.225 -4.288,9.445 -9.513,9.445l-2.813,0c-5.225,0 -9.445,-4.287 -9.445,-9.512l0.2,-84.137c0,-5.225 4.288,-9.446 9.513,-9.446l2.813,0c5.225,0 9.446,4.288 9.446,9.513l-0.201,84.137Z" style="fill:#f0cbb0;"/><path d="M275.255,307.476c0,5.225 -4.288,9.445 -9.513,9.445l-2.813,0c-5.225,0 -9.446,-4.287 -9.446,-9.512l0.201,-84.137c0,-5.225 4.288,-9.446 9.513,-9.446l2.813,0c5.225,0 9.446,4.288 9.446,9.513l-0.201,84.137Z" style="fill:#f0cbb0;"/><path d="M272.709,225.281c0,4.489 -3.617,4.623 -8.106,4.623c-4.488,0 -8.105,-0.201 -8.105,-4.69c0,-4.488 3.684,-8.105 8.105,-8.105c4.489,0.067 8.106,3.684 8.106,8.172" style="fill:#f5decd;"/><path d="M298.968,322.146c0,5.225 -4.287,9.446 -9.512,9.446l-2.813,0c-5.226,0 -9.446,-4.288 -9.446,-9.513l0.201,-84.137c0,-5.225 4.287,-9.445 9.513,-9.445l2.813,0c5.225,0 9.445,4.287 9.445,9.512l-0.201,84.137Z" style="fill:#f0cbb0;"/><path d="M298.968,322.146c0,5.225 -4.287,9.446 -9.512,9.446l-2.813,0c-5.226,0 -9.446,-4.288 -9.446,-9.513l0.201,-84.137c0,-5.225 4.287,-9.445 9.513,-9.445l2.813,0c5.225,0 9.445,4.287 9.445,9.512l-0.201,84.137Z" style="fill:none;stroke:#f0cbb0;stroke-width:0.14px;"/><path d="M296.423,239.952c0,4.488 -3.618,4.622 -8.106,4.622c-4.488,0 -8.105,-0.201 -8.105,-4.689c0,-4.488 3.684,-8.106 8.105,-8.106c4.555,0.067 8.173,3.685 8.106,8.173" style="fill:#f5decd;"/><path d="M227.894,340.233c3.885,5.359 2.679,12.862 -2.68,16.747l-0.469,0.335c-5.359,3.885 -12.861,2.68 -16.747,-2.679l-39.121,-51.581c-3.885,-5.359 -2.679,-12.862 2.68,-16.747l0.469,-0.335c5.359,-3.886 12.861,-2.68 16.747,2.679l39.121,51.581Z" style="fill:#f0cbb0;"/><path d="M169.413,294.681c-1.139,0.938 -2.076,2.01 -2.746,3.283c0.268,1.808 1.004,3.617 2.143,5.158l5.694,7.636c1.541,-0.737 3.149,-1.942 4.89,-3.282c4.489,-3.484 7.972,-6.498 4.489,-10.986c-3.484,-4.555 -9.982,-5.359 -14.47,-1.809" style="fill:#faede4;"/><path d="M169.413,294.681c-1.139,0.938 -2.076,2.01 -2.746,3.283c0.268,1.808 1.004,3.617 2.143,5.158l4.288,5.761c1.406,-0.737 2.947,-1.876 4.555,-3.149c4.488,-3.483 7.971,-6.498 4.488,-10.986c-3.617,-2.947 -8.909,-3.081 -12.728,-0.067" style="fill:#f6e5d6;"/><path d="M298.834,330.051m-13.263,44.949l0.067,-19.829l-0.067,19.829Z" style="fill:#f4f4f4;"/><path d="M296.088,230.908m-4.555,-2.277c1.741,0.335 3.282,1.139 4.555,2.277c-1.206,-1.138 -2.814,-1.942 -4.555,-2.277Zm-23.714,-14.604c1.742,0.335 3.282,1.139 4.555,2.278c-1.273,-1.139 -2.813,-1.943 -4.555,-2.278Zm7.704,13.398l0,-4.086l0,4.086Z" style="fill:#b0dce3;"/><path d="M289.925,228.497c0.536,0 1.072,0.067 1.608,0.201c-0.469,-0.134 -1.005,-0.201 -1.608,-0.201m-0.134,0l0,0Zm-23.647,-14.671c0.603,0 1.139,0.067 1.675,0.201c-0.536,-0.134 -1.139,-0.201 -1.675,-0.201Zm-0.067,0l0,0Zm-2.88,0l0,0Zm-0.134,0l0,0Zm12.259,73.754l0.134,-60.222l-0.134,60.222l0.535,0l-0.535,0Z" style="fill:#a7d0d4;"/><path d="M225.482,220.994c0,4.488 -3.617,4.622 -8.105,4.622c-4.488,0 -8.106,-0.201 -8.106,-4.689c0,-4.488 3.685,-8.105 8.106,-8.105c4.488,0.067 8.172,3.684 8.105,8.172" style="fill:#faede4;"/><path d="M249.33,214.362c0,4.488 -3.617,4.622 -8.105,4.622c-4.489,0 -8.106,-0.201 -8.106,-4.689c0,-4.488 3.684,-8.105 8.106,-8.105c4.488,0.067 8.105,3.684 8.105,8.172" style="fill:#faede4;"/><path d="M257.704,228.564c-0.737,-0.67 -1.206,-1.742 -1.206,-3.283c0,-4.488 3.684,-8.105 8.105,-8.105c2.077,0 4.02,0.804 5.426,2.076c1.675,1.474 2.68,3.618 2.68,6.029c0,4.489 -3.617,4.623 -8.106,4.623c-2.88,0 -5.493,-0.067 -6.899,-1.34" style="fill:#faede4;"/><path d="M281.417,243.234c-0.736,-0.67 -1.205,-1.742 -1.205,-3.282c0,-4.488 3.684,-8.106 8.105,-8.106c2.077,0 3.953,0.804 5.426,2.077c1.675,1.474 2.68,3.617 2.68,6.029c0,4.488 -3.618,4.622 -8.106,4.622c-2.88,0 -5.426,-0.067 -6.9,-1.34" style="fill:#faede4;"/><path d="M211.281,370.177c26.594,7.971 53.389,8.239 80.453,0l0,86.147l-80.453,0l0,-86.147Z" style="fill:#eaecec;"/><path d="M225.348,373.66c21.972,4.287 44.079,3.283 66.386,-3.483l0,18.288c-22.307,7.636 -43.074,8.373 -66.386,3.751l0,-18.556Z" style="fill:#fffffd;"/><path d="M205.587,392.216c30.747,9.981 61.696,9.244 92.645,0c-4.757,27.331 0.267,55.332 4.354,84.539c-33.561,9.579 -65.917,9.914 -96.999,0.536c1.139,-28.202 1.675,-56.471 0,-85.075" style="fill:#31383e;"/><path d="M289.054,480.105c-1.541,-27.064 -0.67,-57.543 -7.837,-83.669c5.694,-1.139 11.388,-2.545 17.081,-4.22c-4.756,27.331 0.268,55.332 4.355,84.539l-13.599,3.35Z" style="fill:#474f54;"/><path d="M211.817,394.092c1.607,28.001 4.756,60.825 12.995,87.687l-19.225,-4.555c0,-0.469 0.067,-0.871 0.067,-1.34c0,-0.469 0.067,-0.871 0.067,-1.34c0,-0.468 0.067,-0.87 0.067,-1.339c0,-0.469 0,-0.871 0.067,-1.34c0,-0.469 0,-0.871 0.067,-1.34c0,-0.469 0,-0.871 0.067,-1.34c0,-0.468 0,-0.87 0.067,-1.339c0,-0.469 0,-0.871 0.067,-1.34c0,-0.469 0,-0.871 0.067,-1.34c0,-0.469 0,-0.871 0.067,-1.34c0,-0.469 0,-0.87 0.067,-1.339c0,-0.469 0,-0.871 0.067,-1.34c0,-0.469 0,-0.871 0.067,-1.34c0,-0.469 0,-0.871 0.067,-1.34c0,-0.469 0,-0.871 0.067,-1.339c0.067,-0.469 0,-0.871 0.067,-1.34l0,-44.212c0,-0.469 0,-0.871 -0.067,-1.34c0,-0.469 0,-0.871 -0.067,-1.34c0,-0.469 0,-0.871 -0.067,-1.34c0,-0.469 0,-0.871 -0.067,-1.339c0,-0.469 0,-0.871 -0.067,-1.34c0,-0.469 0,-0.871 -0.067,-1.34c0,-0.469 -0.067,-0.871 -0.067,-1.34c0,-0.469 -0.067,-0.871 -0.067,-1.34c0,-0.468 -0.067,-0.87 -0.067,-1.339c0,-0.469 -0.067,-0.871 -0.067,-1.34c0,-0.469 -0.067,-0.871 -0.067,-1.34c0,-0.469 -0.067,-0.871 -0.067,-1.34c0,-0.469 -0.067,-0.87 -0.067,-1.339c0,-0.469 -0.067,-0.871 -0.067,-1.34c0,-0.469 -0.067,-0.871 -0.067,-1.34c2.009,1.407 4.086,2.01 6.163,2.613" style="fill:#202a2a;"/><path d="M220.458,414.389c4.22,0 7.637,3.416 7.637,7.637c0,4.22 -3.417,7.636 -7.637,7.636c-4.22,0 -7.636,-3.416 -7.636,-7.636c0,-4.221 3.416,-7.637 7.636,-7.637" style="fill:#9e9e9f;"/><path d="M220.458,417.738c2.412,0 4.287,1.943 4.287,4.288c0,2.344 -1.942,4.287 -4.287,4.287c-2.411,0 -4.287,-1.943 -4.287,-4.287c0,-2.345 1.943,-4.288 4.287,-4.288" style="fill:#b6b7b8;"/><path d="M224.611,420.887c0.134,0.402 0.201,0.804 0.201,1.206c0,2.411 -1.942,4.287 -4.287,4.287c-1.34,0 -2.612,-0.603 -3.349,-1.608c-0.134,-0.402 -0.201,-0.804 -0.201,-1.206c0,-2.411 1.942,-4.287 4.287,-4.287c1.34,-0.067 2.546,0.603 3.349,1.608" style="fill:#eaecec;"/><path d="M225.415,219.989c-0.469,3.618 -3.885,3.752 -8.038,3.752c-4.154,0 -7.57,-0.201 -8.039,-3.752c0.469,-4.019 3.952,-7.167 8.106,-7.1c4.086,0 7.502,3.081 7.971,7.1" style="fill:#f6e5d6;"/><path d="M249.263,213.357c-0.469,3.618 -3.885,3.752 -8.038,3.752c-4.154,0 -7.57,-0.201 -8.039,-3.752c0.469,-4.019 3.885,-7.167 8.106,-7.1c4.086,0 7.502,3.081 7.971,7.1" style="fill:#f6e5d6;"/><path d="M257.704,226.621c-0.603,-0.536 -1.005,-1.273 -1.139,-2.344c0.469,-4.02 3.885,-7.168 8.105,-7.101c2.077,0 4.02,0.804 5.426,2.076c1.407,1.273 2.345,3.015 2.613,5.025c-0.469,3.617 -3.885,3.751 -8.039,3.751c-2.947,0 -5.56,-0.067 -6.966,-1.407" style="fill:#f6e5d6;"/><path d="M281.417,241.292c-0.602,-0.536 -1.004,-1.273 -1.138,-2.345c0.469,-4.019 3.885,-7.168 8.105,-7.101c2.077,0 3.953,0.804 5.426,2.077c1.407,1.273 2.345,3.014 2.613,5.024c-0.469,3.617 -3.885,3.751 -8.039,3.751c-2.947,0 -5.493,-0.134 -6.967,-1.406" style="fill:#f6e5d6;"/><text x="432.244px" y="350.015px" style="font-family:'Arial-BoldMT', 'Arial', sans-serif;font-weight:700;font-size:7.975px;fill:#fff;">.</text></svg>